<?xml version="1.0" standalone="no"?>
<!DOCTYPE svg PUBLIC "-//W3C//DTD SVG 20010904//EN"
 "http://www.w3.org/TR/2001/REC-SVG-20010904/DTD/svg10.dtd">
<svg version="1.0" xmlns="http://www.w3.org/2000/svg"
 width="553.000000pt" height="553.000000pt" viewBox="0 0 553.000000 553.000000"
 preserveAspectRatio="xMidYMid meet">
<metadata>
Created by potrace 1.11, written by Peter Selinger 2001-2013
</metadata>
<g transform="translate(0.000000,553.000000) scale(0.100000,-0.100000)"
fill="#000000" stroke="none">
<path d="M2238 5065 c-2 -2 -48 -5 -103 -9 -466 -29 -728 -165 -794 -411 -18
-68 -24 -170 -25 -422 -1 -178 2 -245 11 -254 12 -12 77 -13 897 -18 66 -1
116 -4 113 -8 -4 -3 -298 -7 -655 -9 -650 -2 -831 -7 -909 -24 -173 -39 -359
-194 -450 -375 -29 -57 -76 -193 -88 -252 -64 -328 -72 -532 -30 -793 61 -374
146 -572 305 -703 47 -40 163 -101 215 -113 47 -12 553 -15 560 -4 11 17 21
11 22 -12 0 -13 3 -133 6 -268 7 -319 16 -376 74 -468 90 -143 237 -248 452
-326 68 -24 204 -60 266 -70 155 -24 182 -26 305 -27 102 -1 142 2 265 16 449
51 791 251 861 500 22 81 31 567 10 606 -9 18 -10 26 -2 27 6 0 121 3 256 6
351 8 406 15 490 64 193 112 364 475 407 867 8 74 7 302 -2 370 -4 28 -7 57
-7 65 0 8 -6 47 -13 85 -8 39 -16 87 -19 107 -11 70 -58 232 -93 320 -76 190
-196 321 -342 373 -70 24 -336 36 -576 24 l-60 -3 -1 -45 c-1 -25 -3 -149 -5
-274 -2 -126 -6 -230 -9 -232 -4 -2 -8 148 -9 333 -5 750 -7 822 -29 882 -38
108 -108 206 -202 283 -75 62 -212 127 -302 142 -17 3 -34 8 -38 10 -3 2 -29
7 -56 10 -27 3 -62 9 -79 12 -16 3 -59 7 -95 10 -77 4 -519 11 -522 8z m442
-119 c52 -4 106 -9 120 -11 14 -2 52 -6 85 -10 161 -19 301 -76 395 -162 104
-95 153 -194 160 -323 6 -124 5 -1020 -2 -1090 -6 -59 -42 -178 -58 -190 -3
-3 -16 -22 -29 -42 -51 -84 -186 -171 -286 -183 -71 -9 -238 -13 -750 -20
-583 -7 -575 -7 -683 -56 -116 -53 -228 -144 -300 -244 -20 -27 -39 -52 -43
-55 -10 -8 -60 -122 -74 -170 -23 -76 -25 -98 -30 -340 -3 -129 -7 -244 -10
-255 -4 -19 -11 -20 -152 -19 -324 4 -397 29 -514 174 -56 69 -120 213 -144
324 -2 12 -11 48 -19 81 -13 54 -21 109 -41 268 -11 92 -6 360 9 441 3 17 8
49 12 71 16 110 59 263 96 345 62 138 173 237 339 304 l78 32 478 3 c969 5
1155 10 1172 26 7 7 8 158 1 184 -3 13 -15 26 -25 28 -11 2 -243 5 -516 7
-272 1 -500 5 -505 9 -18 11 -8 463 13 557 11 52 64 125 116 161 53 36 129 71
175 80 4 1 17 5 30 10 12 5 33 11 45 13 64 13 136 26 172 31 22 3 55 7 74 10
19 2 77 7 130 11 53 3 97 7 98 8 5 4 294 -2 383 -8z m-1285 -916 c3 -5 1 -10
-4 -10 -6 0 -11 5 -11 10 0 6 2 10 4 10 3 0 8 -4 11 -10z m2664 -217 c17 -4
18 -7 5 -31 -8 -15 -14 -33 -14 -39 0 -18 -15 -16 -60 7 -72 37 -92 4 -35 -58
l35 -39 -39 -12 c-26 -7 -41 -18 -45 -33 -7 -31 2 -37 57 -39 55 -3 62 -10 58
-61 -3 -49 20 -60 55 -27 22 21 28 22 57 11 28 -11 33 -10 42 4 6 9 20 28 33
43 13 14 27 30 30 36 4 5 21 17 37 25 20 11 31 24 33 43 4 29 5 28 -68 31 -35
1 -35 1 -32 44 2 43 -2 47 -49 43 -22 -2 -45 27 -32 40 23 23 154 -43 215
-108 69 -74 132 -219 178 -407 25 -104 27 -140 11 -160 -23 -28 -33 -18 -31
32 3 74 1 81 -20 92 -16 9 -21 6 -33 -17 -8 -16 -22 -63 -32 -105 -18 -78 -25
-87 -69 -79 -4 1 -14 -4 -22 -10 -18 -15 -11 -39 28 -102 17 -26 34 -67 39
-90 11 -61 27 -97 45 -104 25 -9 39 14 40 70 1 29 3 53 3 55 1 2 13 -9 28 -23
15 -14 37 -25 49 -25 27 0 33 -22 30 -112 -3 -73 -4 -77 -32 -82 -11 -3 -27
-7 -36 -11 -14 -6 -18 -2 -18 17 0 36 -21 59 -47 52 -16 -4 -27 -21 -40 -58
-21 -63 -20 -61 -32 -116 -6 -25 -19 -72 -31 -105 -27 -78 -31 -104 -20 -126
14 -25 46 -13 64 26 9 18 16 37 16 42 0 4 4 14 9 22 7 11 14 9 35 -13 15 -14
31 -26 36 -26 13 0 24 22 25 47 0 24 14 44 16 22 2 -19 2 -19 -4 -64 -11 -73
-76 -243 -95 -246 -33 -5 -79 -7 -91 -3 -11 3 -10 8 2 28 22 33 2 62 -37 52
-19 -5 -28 -2 -33 10 -3 8 -16 20 -29 24 -26 10 -57 3 -49 -11 8 -12 -6 -59
-17 -59 -5 0 -22 8 -36 18 -66 45 -109 1 -52 -53 36 -34 38 -45 8 -45 -26 0
-68 -37 -62 -55 7 -18 -21 -26 -41 -12 -13 10 -14 18 -6 40 20 52 17 55 -57
53 -71 -2 -94 -10 -91 -29 4 -30 -3 -46 -20 -52 -23 -7 -131 -109 -131 -124 0
-5 7 -16 15 -25 16 -15 36 -12 85 14 16 9 27 3 61 -30 23 -22 47 -40 54 -40
15 0 41 23 47 42 5 15 30 -6 41 -34 7 -21 25 -20 -308 -20 -322 0 -283 -8
-338 64 -26 34 -47 68 -47 76 0 8 9 27 21 43 24 34 22 62 -6 67 -11 2 -35 11
-52 19 -18 8 -38 12 -45 9 -89 -47 -93 -51 -96 -98 -2 -38 1 -49 17 -57 11 -6
23 -25 26 -43 15 -67 48 -88 73 -47 l13 21 25 -23 c13 -12 24 -25 24 -28 0 -5
-631 -6 -663 -2 -17 2 16 43 48 58 45 22 55 51 25 75 l-22 18 31 47 c37 55 37
59 10 74 -19 10 -28 5 -79 -46 l-57 -57 -40 21 c-34 17 -43 18 -58 7 -10 -7
-16 -20 -12 -28 3 -9 -4 -30 -15 -49 l-20 -33 28 -22 c33 -27 42 -64 16 -65
-89 -4 -105 -23 -105 -128 0 -114 18 -131 143 -131 70 0 98 -13 142 -65 24
-27 23 -31 -13 -41 -44 -13 -60 -41 -35 -60 11 -8 34 -14 50 -14 45 0 56 -11
52 -48 -8 -56 39 -78 65 -31 12 24 25 24 51 0 l20 -20 -20 -28 c-38 -54 -51
-169 -23 -220 17 -33 14 -46 -19 -68 -16 -11 -30 -25 -30 -32 0 -21 -37 -24
-74 -6 -27 12 -42 14 -53 7 -26 -16 -26 -29 2 -62 25 -30 25 -31 6 -41 -49
-27 -27 -91 24 -71 28 11 35 5 35 -31 0 -15 6 -29 13 -32 8 -3 9 -8 2 -15 -14
-15 -206 -25 -432 -23 -65 1 -83 17 -81 76 0 25 2 45 4 45 2 0 31 -20 65 -45
64 -47 68 -49 93 -39 16 6 23 54 9 54 -5 0 -30 20 -58 44 l-50 44 18 31 c17
30 17 30 -5 45 -13 8 -42 17 -66 20 -24 3 -60 10 -80 15 -67 17 -101 19 -118
6 -17 -12 -16 -23 8 -59 11 -15 11 -19 0 -23 -27 -10 -72 -55 -72 -73 0 -35
23 -40 71 -15 l46 23 -2 -32 c-4 -54 -15 -76 -37 -76 -28 0 -209 61 -283 96
-33 15 -87 46 -120 68 -59 39 -135 110 -135 127 0 10 55 49 70 49 6 0 11 -10
10 -22 -4 -45 0 -57 23 -63 12 -4 32 -17 45 -28 33 -30 55 -13 65 52 5 28 12
51 15 52 4 0 17 2 30 3 30 4 44 19 36 39 -8 22 -97 87 -118 87 -9 0 -57 -16
-106 -35 -97 -38 -119 -42 -121 -22 -1 6 -3 26 -6 42 -7 49 -7 1075 0 1147 4
37 16 92 27 122 54 143 203 268 341 284 35 4 260 9 500 10 390 2 438 0 443
-14 4 -10 -5 -25 -24 -42 -33 -29 -38 -56 -16 -88 8 -11 19 -38 25 -61 11 -42
23 -51 76 -60 16 -3 42 -14 56 -24 37 -26 68 -13 59 26 -8 38 -8 45 0 45 5 0
14 9 20 19 13 25 -11 51 -46 51 -29 0 -29 0 -4 47 38 75 70 102 125 108 118
14 242 63 353 139 66 46 75 49 83 33 6 -9 21 -29 35 -44 13 -14 24 -29 24 -32
0 -3 -15 -13 -32 -21 -32 -15 -45 -44 -26 -57 6 -3 27 -7 47 -9 20 -1 41 -3
48 -3 7 -1 10 -17 6 -50 -6 -60 13 -72 55 -36 26 22 32 23 62 12 27 -10 34
-10 38 2 3 8 18 27 33 44 16 16 29 33 29 36 0 4 15 15 34 25 19 10 37 25 40
32 7 19 -39 47 -68 42 -39 -8 -53 6 -37 36 19 35 0 59 -40 51 -21 -5 -30 -2
-38 13 -24 46 -71 29 -71 -25 0 -29 -11 -29 -71 0 -52 24 -56 29 -36 49 47 47
133 198 167 292 12 33 23 63 26 67 2 4 43 -5 89 -22 47 -16 93 -29 104 -29 35
0 43 93 13 150 -11 19 -22 58 -25 85 -10 78 -12 85 -31 107 -18 20 -18 20 -36
2 -12 -12 -20 -36 -21 -68 -2 -27 -9 -55 -17 -62 -9 -9 -11 -24 -7 -43 5 -26
2 -32 -24 -45 -16 -9 -32 -12 -35 -8 -3 5 -5 115 -5 246 l-1 237 175 -1 c96
-1 183 -4 194 -7z m-519 -594 c-11 -24 -17 -33 -14 -19 9 41 28 84 31 73 2 -5
-6 -30 -17 -54z m-44 -106 c-15 -26 -42 -66 -62 -88 -29 -34 -28 -30 9 21 24
34 49 76 57 93 7 17 15 30 17 27 3 -3 -7 -26 -21 -53z m1074 -82 c0 -12 -28
-22 -34 -12 -3 5 -3 11 1 15 9 9 33 7 33 -3z m13 -110 c8 -33 -8 -46 -26 -20
-9 12 -14 26 -11 31 9 15 32 8 37 -11z m-1303 -41 c-24 -15 -36 -11 -14 4 10
8 21 12 24 10 2 -3 -2 -9 -10 -14z m-110 -48 c0 -5 -6 -9 -12 -10 -7 0 -37 -7
-66 -16 -38 -10 -50 -11 -43 -2 5 6 24 13 42 14 17 1 39 7 48 12 20 12 31 12
31 2z m-416 -31 c77 -1 136 -4 133 -7 -3 -4 -140 -8 -304 -9 -827 -8 -792 -7
-852 -26 -32 -9 -73 -27 -92 -38 -19 -11 -41 -24 -49 -28 -29 -14 -93 -76
-153 -148 -49 -60 -96 -169 -112 -265 -9 -54 -18 -51 -12 5 8 73 12 84 60 185
46 98 166 215 277 268 96 47 159 59 309 61 58 1 106 3 107 4 1 1 125 1 276 0
150 -1 336 -2 412 -2z m173 -7 c-3 -3 -12 -4 -19 -1 -8 3 -5 6 6 6 11 1 17 -2
13 -5z m-57 -133 c0 -13 -26 -32 -33 -24 -14 13 -6 33 13 33 11 0 20 -4 20 -9z
m1701 -144 c-10 -28 -37 -30 -33 -2 4 22 21 37 34 29 4 -3 3 -15 -1 -27z
m-181 -533 c0 -8 -5 -12 -10 -9 -6 4 -8 11 -5 16 9 14 15 11 15 -7z m-233 -56
c-8 -32 -7 -42 6 -56 15 -15 19 -14 45 11 26 25 30 26 61 14 31 -11 34 -10 53
16 23 32 44 37 27 5 -25 -46 -105 -103 -177 -124 -59 -18 -70 -13 -114 49
l-20 28 25 25 c14 14 24 34 22 44 -4 20 36 40 66 33 14 -4 15 -11 6 -45z
m-1702 -218 c-3 -5 -11 -10 -16 -10 -6 0 -7 5 -4 10 3 6 11 10 16 10 6 0 7 -4
4 -10z m-4 -123 c-1 -12 -15 -9 -19 4 -3 6 1 10 8 8 6 -3 11 -8 11 -12z m300
-80 c-1 -12 -15 -9 -19 4 -3 6 1 10 8 8 6 -3 11 -8 11 -12z m695 -45 c-3 -67
-10 -82 -37 -82 -20 0 -26 15 -10 24 5 4 8 13 7 22 -4 27 -28 34 -65 18 -32
-13 -37 -13 -47 1 -19 26 -45 2 -81 -75 l-31 -68 -39 10 c-78 21 -136 21 -193
-2 l-55 -21 23 21 c12 11 22 27 22 35 0 8 11 17 24 21 63 16 71 74 11 80 -17
2 -40 6 -53 9 -22 5 -23 6 -5 35 l17 30 257 0 257 0 -2 -58z m-1 -263 c-6
-121 -18 -167 -60 -234 -41 -65 -86 -110 -158 -156 -58 -38 -209 -105 -253
-113 -13 -3 -28 -7 -33 -10 -5 -3 -11 8 -14 24 -4 19 -17 35 -38 46 l-32 16
31 20 c45 28 41 58 -11 77 -18 7 -25 15 -21 26 5 12 17 8 71 -21 99 -56 189
-48 273 22 61 52 87 109 96 211 5 64 13 83 33 83 9 0 26 7 37 15 18 13 18 15
2 45 -17 30 -17 31 5 40 12 5 35 9 50 9 l28 1 -6 -101z m-305 -15 c50 -49 53
-151 7 -195 -26 -25 -81 -49 -111 -49 -30 0 -93 45 -111 80 -26 50 -15 125 23
161 32 29 57 37 109 35 44 -1 58 -7 83 -32z m-281 -503 c9 -6 10 -10 2 -16
-15 -8 -41 1 -41 15 0 12 20 13 39 1z"/>
<path d="M1745 4720 c-40 -18 -95 -66 -121 -106 -22 -33 -40 -106 -38 -151 4
-74 71 -167 149 -211 32 -17 138 -23 188 -9 56 15 150 122 165 186 24 111 -38
234 -146 287 -50 25 -146 27 -197 4z m181 -131 c57 -55 64 -122 21 -186 -63
-94 -200 -69 -237 42 -20 60 3 120 61 157 55 36 109 31 155 -13z"/>
<path d="M3986 3178 c-8 -18 -12 -38 -9 -45 7 -18 -5 -16 -38 8 -73 51 -113
24 -60 -41 l32 -40 -38 -17 c-29 -14 -38 -24 -38 -43 0 -24 3 -25 58 -24 l58
1 -6 -47 c-5 -35 -3 -49 9 -59 13 -11 21 -9 47 13 33 28 44 31 54 16 11 -18
55 -12 55 8 0 22 65 91 97 103 59 22 34 72 -36 68 -41 -3 -46 -1 -43 17 11 62
8 69 -25 70 -19 0 -42 9 -56 22 -32 30 -46 28 -61 -10z"/>
<path d="M4280 2794 c-15 -9 -39 -13 -60 -10 -31 5 -40 1 -73 -34 -20 -22 -43
-40 -51 -40 -22 0 -26 -25 -10 -77 8 -26 14 -50 13 -53 -1 -3 15 -13 35 -23
20 -9 36 -21 36 -25 0 -5 9 -18 21 -31 31 -33 50 -12 48 50 -2 41 1 50 26 71
25 22 26 27 15 48 -11 21 -10 25 16 44 47 33 76 66 71 79 -5 17 -58 18 -87 1z"/>
<path d="M2458 2570 c-9 -6 -24 -32 -33 -59 -8 -26 -27 -58 -40 -69 -14 -13
-25 -33 -25 -47 0 -24 -3 -25 -59 -25 -79 0 -92 -16 -52 -61 17 -18 28 -36 26
-39 -9 -15 31 -39 58 -36 19 2 30 -2 34 -13 12 -34 35 -51 54 -40 11 5 19 18
19 28 0 21 24 49 62 74 30 19 32 43 8 72 -13 16 -16 80 -9 180 4 47 -7 55 -43
35z"/>
<path d="M1754 2525 c-8 -19 -16 -35 -19 -35 -2 0 -23 9 -45 21 -73 38 -96 -2
-35 -61 l35 -34 -42 -16 c-73 -27 -60 -71 21 -73 l52 -1 -5 -41 c-2 -23 -1
-48 4 -55 11 -18 57 -4 65 20 7 24 15 25 40 6 18 -13 55 -11 55 4 0 4 11 20
25 36 14 16 25 32 25 36 0 4 15 15 33 24 53 27 62 54 24 71 -13 6 -34 9 -48 7
-33 -6 -58 11 -41 28 31 31 4 72 -37 57 -18 -7 -27 -7 -29 1 -6 18 -33 40 -48
40 -8 0 -22 -16 -30 -35z"/>
<path d="M3176 2504 c-9 -8 -16 -24 -16 -35 0 -29 -23 -33 -64 -8 -66 39 -90
0 -35 -57 l31 -32 -41 -22 c-33 -16 -42 -26 -39 -43 3 -20 10 -22 66 -25 37
-2 60 -7 57 -13 -11 -16 -16 -60 -10 -79 7 -23 31 -20 60 8 20 19 26 20 55 9
29 -11 34 -10 44 7 6 10 21 28 34 39 12 11 22 27 22 34 0 8 16 21 36 29 27 11
35 20 32 37 -2 18 -12 23 -50 29 -55 7 -76 17 -59 27 18 12 21 49 5 62 -11 9
-21 9 -39 1 -14 -7 -25 -8 -25 -3 0 9 -35 51 -43 51 -3 0 -13 -7 -21 -16z"/>
<path d="M3695 2429 c-22 -10 -52 -19 -67 -19 -22 0 -27 -5 -30 -27 -2 -21 -9
-29 -28 -32 -14 -1 -28 -8 -32 -15 -12 -18 -9 -56 5 -56 77 -3 117 -23 117
-60 0 -19 19 -40 37 -40 7 0 22 14 32 30 l18 30 54 -37 c30 -20 54 -37 55 -37
4 -3 34 28 34 35 0 4 -23 30 -50 57 l-51 48 21 24 c11 12 20 34 20 47 0 19 -5
23 -29 23 -20 0 -32 6 -36 19 -9 28 -25 30 -70 10z"/>
<path d="M1997 2038 c-9 -5 -17 -14 -17 -21 -1 -31 -16 -39 -46 -25 -43 21
-64 13 -64 -26 0 -22 -8 -40 -25 -56 -20 -18 -22 -26 -14 -42 9 -17 18 -19 60
-14 l50 6 -5 -34 c-8 -49 12 -68 58 -54 25 8 38 20 46 41 10 29 36 61 88 110
24 22 30 63 10 70 -7 2 -25 1 -39 -3 -31 -9 -44 -3 -53 27 -8 26 -27 34 -49
21z"/>
<path d="M1585 1529 c-4 -5 -1 -24 5 -40 16 -37 11 -41 -42 -45 -95 -7 -105
-20 -65 -84 17 -28 28 -35 52 -35 22 0 30 -5 35 -23 5 -21 59 -63 87 -68 7 -1
22 18 34 43 12 25 35 53 50 62 16 9 29 19 29 23 0 4 12 19 26 33 39 39 29 59
-33 66 -40 5 -62 15 -94 43 -43 36 -72 45 -84 25z"/>
<path d="M2233 1352 c-6 -4 -18 -24 -27 -45 l-16 -39 -29 21 c-70 50 -105 17
-52 -49 l31 -39 -36 -11 c-37 -12 -59 -46 -43 -66 6 -8 31 -10 70 -7 59 5 61
5 50 -15 -16 -31 -14 -79 5 -86 22 -8 20 -9 48 21 20 22 28 25 38 15 21 -21
58 -14 68 13 5 14 14 25 20 25 6 0 15 11 20 25 6 15 25 32 45 41 23 9 35 21
35 34 0 27 -27 38 -82 35 l-48 -3 18 27 c10 14 17 33 15 43 -5 22 -32 31 -50
16 -12 -10 -18 -9 -29 7 -8 10 -14 22 -14 26 0 11 -26 18 -37 11z"/>
<path d="M3984 4955 c-14 -22 -18 -23 -31 -10 -34 35 -71 7 -53 -39 11 -30 -1
-41 -50 -45 -19 -1 -41 -9 -49 -16 -12 -12 -12 -17 2 -38 15 -23 14 -31 -24
-138 -30 -87 -39 -122 -34 -149 4 -19 8 -60 11 -90 8 -93 61 -238 112 -302 70
-90 163 -148 237 -148 84 0 192 78 236 171 45 95 51 118 55 234 5 126 4 123
14 98 5 -13 8 -62 5 -110 -6 -142 -52 -258 -138 -346 -47 -48 -48 -49 -30 -71
70 -83 146 -106 272 -79 87 18 149 54 238 138 41 38 82 74 90 78 27 16 -2 -25
-58 -81 -87 -88 -182 -145 -264 -158 -21 -3 -46 -15 -56 -27 -15 -20 -16 -24
-2 -51 8 -16 35 -50 59 -76 26 -27 45 -58 46 -74 1 -14 5 -27 8 -27 3 -1 15
-3 28 -4 13 -1 28 -7 35 -14 15 -15 45 -14 62 2 8 9 41 15 82 16 184 7 242 21
363 88 75 42 167 130 196 187 14 29 29 43 54 52 39 13 42 32 8 68 -39 42 -40
52 -3 72 19 10 37 25 40 32 9 23 -14 42 -46 38 -26 -3 -31 0 -36 25 -7 38 -29
56 -51 42 -12 -7 -26 -7 -42 0 -14 5 -38 13 -55 17 -168 47 -234 53 -265 25
-27 -24 -34 -14 -20 29 16 50 21 82 25 156 2 36 4 73 4 83 1 9 8 17 16 17 8 0
15 4 15 9 0 5 2 16 5 24 4 10 -10 20 -46 35 -31 14 -49 27 -46 34 18 49 17 57
-2 68 -11 5 -24 10 -28 9 -22 -4 -31 3 -37 26 -10 41 -35 43 -66 5 l-28 -34
-32 28 c-40 33 -74 32 -78 -4 -2 -20 -16 -31 -65 -55 -34 -16 -84 -43 -110
-61 -52 -36 -72 -36 -81 2 -9 35 -106 182 -149 225 -21 21 -39 50 -42 70 -3
18 -8 35 -10 37 -2 2 -27 -4 -55 -13 -53 -17 -60 -17 -64 7 -6 44 -47 51 -72
13z m213 -164 c29 -27 65 -89 61 -103 -2 -6 -14 4 -26 23 -12 19 -33 47 -47
63 -14 16 -25 31 -25 33 0 9 18 1 37 -16z m-13 -53 c18 -24 22 -36 15 -49 -5
-10 -9 -29 -9 -44 0 -14 -7 -28 -15 -31 -25 -10 -18 -49 10 -62 14 -7 25 -18
24 -24 -5 -37 2 -48 29 -48 30 0 52 -16 52 -38 0 -10 -5 -12 -17 -6 -10 4 -37
8 -60 8 -23 1 -45 5 -49 8 -13 14 -45 -12 -39 -32 4 -12 -2 -27 -14 -39 -27
-27 -26 -35 4 -55 14 -9 25 -25 25 -36 0 -26 10 -30 69 -31 45 -1 51 -4 51
-23 0 -21 -30 -78 -54 -101 -6 -7 -27 -20 -45 -30 -40 -20 -103 -14 -140 14
l-23 18 43 31 c24 18 49 32 56 32 19 0 16 28 -7 57 -11 14 -18 29 -15 33 2 4
-7 18 -21 31 -18 17 -39 25 -72 26 -107 6 -107 6 -110 36 -4 36 10 53 70 83
52 27 58 41 28 69 -11 10 -20 24 -20 30 0 7 -13 29 -30 50 -33 42 -30 58 16
94 30 24 48 16 58 -24 7 -28 36 -47 55 -36 6 4 13 21 15 37 3 23 8 29 29 29
31 1 58 22 50 41 -10 25 15 15 41 -18z m386 -137 c0 -5 -7 -12 -16 -15 -24 -9
-28 -7 -14 9 14 17 30 20 30 6z m117 -52 c9 -9 7 -21 -7 -49 -25 -49 -14 -68
28 -46 17 9 34 21 38 27 5 8 13 4 24 -11 10 -14 29 -24 46 -24 22 -2 30 -8 32
-24 4 -29 -61 -95 -97 -96 -23 -1 -26 -5 -23 -32 2 -19 -3 -36 -13 -44 -20
-17 -19 -37 5 -67 24 -30 25 -46 6 -62 -12 -10 -16 -5 -26 23 -6 20 -20 38
-31 41 -11 4 -24 18 -29 31 -11 28 -27 30 -58 8 -12 -8 -26 -13 -31 -9 -12 7
-43 -24 -36 -36 15 -24 12 -47 -6 -52 -29 -8 -23 -27 21 -75 l39 -43 -37 -16
c-75 -31 -182 -21 -182 17 0 21 55 80 75 80 14 0 19 10 31 75 4 22 8 46 10 52
1 7 3 43 5 80 3 83 11 95 54 87 32 -6 33 -5 38 33 16 102 19 119 22 131 5 15
87 16 102 1z m208 -127 c-2 -9 -4 -30 -4 -45 -1 -16 -5 -26 -10 -22 -5 3 -6
17 -2 33 5 15 7 35 5 45 -1 9 1 15 6 12 5 -3 7 -13 5 -23z m-1048 -104 c-3 -8
-6 -5 -6 6 -1 11 2 17 5 13 3 -3 4 -12 1 -19z m461 -98 c-6 -22 -14 -40 -18
-40 -4 0 -11 -11 -14 -24 -9 -37 -90 -103 -132 -108 -19 -2 -38 0 -40 4 -3 5
-2 8 3 6 47 -12 131 59 177 150 15 29 28 52 30 52 2 0 -1 -18 -6 -40z m-408
-16 c0 -8 -5 -12 -10 -9 -6 4 -8 11 -5 16 9 14 15 11 15 -7z m1210 -20 c0 -2
-11 -4 -25 -4 -14 0 -25 4 -25 9 0 4 11 6 25 3 14 -2 25 -6 25 -8z m-1109 -85
c19 -15 47 -31 62 -34 15 -4 27 -11 27 -15 0 -4 -20 -2 -44 5 -43 13 -106 59
-106 77 0 11 13 4 61 -33z m1149 25 l33 -17 -36 -15 c-21 -8 -37 -20 -37 -27
0 -15 23 -41 42 -47 11 -4 11 -8 0 -20 -10 -13 -9 -20 6 -38 18 -22 20 -23 43
-7 32 23 39 21 39 -10 0 -43 -31 -95 -75 -124 -49 -33 -70 -26 -85 30 -8 32
-15 39 -41 43 -24 4 -34 -1 -50 -24 -11 -15 -26 -28 -34 -28 -23 0 -53 -63
-43 -90 12 -32 0 -41 -60 -44 -47 -3 -53 0 -85 33 -19 20 -40 46 -46 59 -13
25 -61 31 -61 7 0 -17 -42 -30 -67 -20 -21 8 -22 7 93 83 39 26 104 77 144
114 41 37 75 66 77 64 2 -2 -1 -15 -6 -29 -12 -31 -6 -37 33 -37 17 0 40 -7
50 -15 22 -17 34 -12 46 21 7 18 17 24 38 24 28 0 28 1 24 51 -4 53 1 79 16
79 5 0 24 -7 42 -16z m-379 -11 c-14 -26 -71 -79 -71 -66 0 10 67 83 76 83 3
0 0 -8 -5 -17z m-176 -145 c-41 -21 -95 -40 -95 -32 0 2 21 15 48 28 59 30
104 34 47 4z m-228 -13 c19 -8 44 -15 54 -15 10 0 20 -4 23 -9 12 -19 -98 4
-115 25 -15 18 -7 18 38 -1z m862 -141 c-36 -37 -97 -79 -105 -72 -5 6 71 78
100 95 38 22 40 13 5 -23z m-648 -60 c12 -14 11 -16 -5 -13 -10 2 -26 15 -35
28 -15 23 -15 24 5 13 11 -6 27 -18 35 -28z"/>
</g>
</svg>
